<svg height="512" viewBox="0 0 64 64" width="512" xmlns="http://www.w3.org/2000/svg"><g id="device"><path d="m39 3h20v13h-20z" fill="#46f8ff"/><path d="m23 53v2a2.006 2.006 0 0 1 -2 2h-16a2.006 2.006 0 0 1 -2-2v-2z" fill="#e0e0e2"/><path d="m23 45v8h-20v-8a2.006 2.006 0 0 1 2-2h16a2.006 2.006 0 0 1 2 2z" fill="#46f8ff"/><path d="m15.93 57 .98 4h-7.82l.98-4z" fill="#e0e0e2"/><path d="m23 53v2a2.006 2.006 0 0 1 -2 2h-2a2.006 2.006 0 0 0 2-2v-2z" fill="#c6c5ca"/><path d="m23 45v8h-2v-8a2.006 2.006 0 0 0 -2-2h2a2.006 2.006 0 0 1 2 2z" fill="#00e7f0"/><path d="m16.91 61h-2l-.98-4h2z" fill="#c6c5ca"/><path d="m60.88 15-.88 4h-22l-.88-4h1.88 8v1h4v-1h8z" fill="#e0e0e2"/><path d="m57 3h2v13h-2z" fill="#00e7f0"/><path d="m60.88 15-.88 4h-22l-.88-4h1.88 8v1h4v-1h8z" fill="#e0e0e2"/><path d="m60.88 15-.88 4h-2l.88-4z" fill="#c6c5ca"/><path d="m38.75 34.31a6.022 6.022 0 0 1 -.34.83l2.01 2.58-2.7 2.7-2.58-2.01a6.022 6.022 0 0 1 -.83.34l-.41 3.25h-3.8l-.41-3.25a6.022 6.022 0 0 1 -.83-.34l-2.58 2.01-2.7-2.7 2.01-2.58a6.022 6.022 0 0 1 -.34-.83l-3.25-.41v-3.8l3.25-.41a6.022 6.022 0 0 1 .34-.83l-2.01-2.58 2.7-2.7 2.58 2.01a6.022 6.022 0 0 1 .83-.34l.41-3.25h3.8l.41 3.25a6.022 6.022 0 0 1 .83.34l2.58-2.01 2.7 2.7-2.01 2.58a6.022 6.022 0 0 1 .34.83l3.25.41v3.8z" fill="#c0ab91"/><path d="m38.75 34.31a6.022 6.022 0 0 1 -.34.83l2.01 2.58-2.7 2.7-2.58-2.01a6.022 6.022 0 0 1 -.83.34l-.41 3.25h-3.8l-.41-3.25a6.022 6.022 0 0 1 -.83-.34l-2.58 2.01-1.37-1.37a21.327 21.327 0 0 0 10.09-7.05 20.921 20.921 0 0 0 3.66-7.48l1.76 1.76-2.01 2.58a6.022 6.022 0 0 1 .34.83l3.25.41v3.8z" fill="#b39a7c"/><circle cx="32" cy="32" fill="#ffde55" r="4"/><rect fill="#46f8ff" height="20" rx="2" width="16" x="3" y="3"/><rect fill="#46f8ff" height="20" rx="2" width="12" x="49" y="41"/><path d="m58 41v1a2.006 2.006 0 0 1 -2 2h-2a2.006 2.006 0 0 1 -2-2v-1z" fill="#ffde55"/><path d="m61 43v16a2.006 2.006 0 0 1 -2 2h-2a2.006 2.006 0 0 0 2-2v-16a2.006 2.006 0 0 0 -2-2h2a2.006 2.006 0 0 1 2 2z" fill="#00e7f0"/><path d="m58 41v1a2.006 2.006 0 0 1 -2 2h-2a2.006 2.006 0 0 0 2-2v-1z" fill="#ffcd00"/><path d="m19 5v16a2.006 2.006 0 0 1 -2 2h-4a2.006 2.006 0 0 0 2-2v-16a2.006 2.006 0 0 0 -2-2h4a2.006 2.006 0 0 1 2 2z" fill="#00e7f0"/><path d="m36 32a3.995 3.995 0 0 1 -7.64 1.64 3.931 3.931 0 0 0 1.64.36 4 4 0 0 0 4-4 3.931 3.931 0 0 0 -.36-1.64 3.988 3.988 0 0 1 2.36 3.64z" fill="#ffcd00"/><path d="m61.65 14.37a1 1 0 0 0 -.77-.37h-.88v-11a1 1 0 0 0 -1-1h-20a1 1 0 0 0 -1 1v11h-.88a1 1 0 0 0 -.77.37.989.989 0 0 0 -.2.84l.87 4a1 1 0 0 0 .98.79h22a1 1 0 0 0 .98-.79l.87-4a.989.989 0 0 0 -.2-.84zm-21.65-10.37h18v10h-7a1 1 0 0 0 -1 1h-2a1 1 0 0 0 -1-1h-7zm19.2 14h-20.4l-.43-2h7.63a1 1 0 0 0 1 1h4a1 1 0 0 0 1-1h7.63z"/><path d="m21 42h-16a3.009 3.009 0 0 0 -3 3v10a3.009 3.009 0 0 0 3 3h3.79l-.67 2.76a.982.982 0 0 0 .18.86 1 1 0 0 0 .79.38h7.82a1 1 0 0 0 .79-.38.982.982 0 0 0 .18-.86l-.67-2.76h3.79a3.009 3.009 0 0 0 3-3v-10a3.009 3.009 0 0 0 -3-3zm-10.64 18 .49-2h4.3l.49 2zm11.64-5a1 1 0 0 1 -1 1h-16a1 1 0 0 1 -1-1v-1h18zm0-3h-18v-7a1 1 0 0 1 1-1h16a1 1 0 0 1 1 1z"/><path d="m59 40h-8a3.009 3.009 0 0 0 -3 3v16a3.009 3.009 0 0 0 3 3h8a3.009 3.009 0 0 0 3-3v-16a3.009 3.009 0 0 0 -3-3zm-2 2a1 1 0 0 1 -1 1h-2a1 1 0 0 1 -1-1zm3 17a1 1 0 0 1 -1 1h-8a1 1 0 0 1 -1-1v-16a1 1 0 0 1 1-1 3.009 3.009 0 0 0 3 3h2a3.009 3.009 0 0 0 3-3 1 1 0 0 1 1 1z"/><path d="m17 2h-12a3.009 3.009 0 0 0 -3 3v16a3.009 3.009 0 0 0 3 3h12a3.009 3.009 0 0 0 3-3v-16a3.009 3.009 0 0 0 -3-3zm1 19a1 1 0 0 1 -1 1h-12a1 1 0 0 1 -1-1v-16a1 1 0 0 1 1-1h12a1 1 0 0 1 1 1z"/><path d="m10 18h2v2h-2z"/><path d="m42.12 29.1-2.4-.3 1.49-1.91a.994.994 0 0 0 -.09-1.32l-2.69-2.69a1 1 0 0 0 -1.32-.09l-1.91 1.49-.3-2.4a1.013 1.013 0 0 0 -1-.88h-3.8a1.013 1.013 0 0 0 -1 .88l-.3 2.4-1.91-1.49a1 1 0 0 0 -1.32.09l-2.69 2.69a.994.994 0 0 0 -.09 1.32l1.49 1.91-2.4.3a1.013 1.013 0 0 0 -.88 1v3.8a1.013 1.013 0 0 0 .88 1l2.4.3-1.49 1.91a.994.994 0 0 0 .09 1.32l2.69 2.69a1 1 0 0 0 1.32.09l1.91-1.49.3 2.4a1.013 1.013 0 0 0 1 .88h3.8a1.013 1.013 0 0 0 1-.88l.3-2.4 1.91 1.49a1 1 0 0 0 1.32-.09l2.69-2.69a.994.994 0 0 0 .09-1.32l-1.49-1.91 2.4-.3a1.013 1.013 0 0 0 .88-1v-3.8a1.013 1.013 0 0 0 -.88-1zm-1.12 3.92-2.37.3a.984.984 0 0 0 -.82.67c-.09.24-.19.48-.3.71a.979.979 0 0 0 .11 1.05l1.47 1.89-1.45 1.45-1.89-1.47a.979.979 0 0 0 -1.05-.11 7.758 7.758 0 0 1 -.72.3.989.989 0 0 0 -.66.82l-.3 2.37h-2.04l-.3-2.37a.989.989 0 0 0 -.66-.82 7.758 7.758 0 0 1 -.72-.3.979.979 0 0 0 -1.05.11l-1.89 1.47-1.45-1.45 1.47-1.89a.979.979 0 0 0 .11-1.05c-.11-.23-.21-.47-.3-.71a.984.984 0 0 0 -.82-.67l-2.37-.3v-2.04l2.37-.3a.984.984 0 0 0 .82-.67c.09-.24.19-.48.3-.71a.979.979 0 0 0 -.11-1.05l-1.47-1.89 1.45-1.45 1.89 1.47a.979.979 0 0 0 1.05.11c.23-.11.47-.21.71-.3a.984.984 0 0 0 .67-.82l.3-2.37h2.04l.3 2.37a.984.984 0 0 0 .67.82c.24.09.48.19.71.3a.979.979 0 0 0 1.05-.11l1.89-1.47 1.45 1.45-1.47 1.89a.979.979 0 0 0 -.11 1.05c.11.23.21.47.3.71a.984.984 0 0 0 .82.67l2.37.3z"/><path d="m37 32a5 5 0 1 0 -5 5 5.006 5.006 0 0 0 5-5zm-5 3a3 3 0 1 1 3-3 3 3 0 0 1 -3 3z"/><path d="m45 30v2h4a1 1 0 0 0 1-1v-9h-2v8z"/><path d="m11 32v8h2v-7h6v-2h-7a1 1 0 0 0 -1 1z"/><path d="m31 19h2v-6a1 1 0 0 0 -1-1h-10v2h9z"/><path d="m33 45h-2v8a1 1 0 0 0 1 1h14v-2h-13z"/></g></svg>