<svg xmlns="http://www.w3.org/2000/svg" height="272pt" version="1.1" viewBox="1 -72 272.905 272" width="272pt">
<g id="surface1">
<path d="M 259.351562 5.027344 L 13.648438 5.027344 C 8.625 5.027344 4.550781 9.101562 4.550781 14.128906 L 4.550781 96.03125 C 4.550781 101.054688 8.625 105.128906 13.648438 105.128906 L 259.351562 105.128906 C 264.375 105.128906 268.449219 101.054688 268.449219 96.03125 L 268.449219 14.128906 C 268.449219 9.101562 264.375 5.027344 259.351562 5.027344 Z M 50.050781 77.828125 L 22.75 77.828125 L 22.75 50.527344 L 50.050781 50.527344 Z M 91 77.828125 L 63.699219 77.828125 L 63.699219 50.527344 L 91 50.527344 Z M 131.949219 77.828125 L 104.648438 77.828125 L 104.648438 50.527344 L 131.949219 50.527344 Z M 172.902344 77.828125 L 145.601562 77.828125 L 145.601562 50.527344 L 172.902344 50.527344 Z M 213.851562 77.828125 L 186.550781 77.828125 L 186.550781 50.527344 L 213.851562 50.527344 Z M 245.699219 55.078125 C 240.675781 55.078125 236.601562 51.003906 236.601562 45.980469 C 236.601562 40.953125 240.675781 36.878906 245.699219 36.878906 C 250.726562 36.878906 254.800781 40.953125 254.800781 45.980469 C 254.800781 51.003906 250.726562 55.078125 245.699219 55.078125 Z M 245.699219 55.078125 " style=" stroke:none;fill-rule:nonzero;fill:rgb(80.392157%,80.392157%,81.568627%);fill-opacity:1;" />
<path d="M 36.398438 123.328125 L 54.601562 123.328125 L 59.148438 105.128906 L 31.851562 105.128906 Z M 36.398438 123.328125 " style=" stroke:none;fill-rule:nonzero;fill:rgb(40%,90.588235%,92.54902%);fill-opacity:1;" />
<path d="M 218.402344 123.328125 L 236.601562 123.328125 L 241.152344 105.128906 L 213.851562 105.128906 Z M 218.402344 123.328125 " style=" stroke:none;fill-rule:nonzero;fill:rgb(40%,90.588235%,92.54902%);fill-opacity:1;" />
<path d="M 254.800781 45.980469 C 254.800781 51.003906 250.726562 55.078125 245.699219 55.078125 C 240.675781 55.078125 236.601562 51.003906 236.601562 45.980469 C 236.601562 40.953125 240.675781 36.878906 245.699219 36.878906 C 250.726562 36.878906 254.800781 40.953125 254.800781 45.980469 Z M 254.800781 45.980469 " style=" stroke:none;fill-rule:nonzero;fill:rgb(40%,90.588235%,92.54902%);fill-opacity:1;" />
<path d="M 22.75 50.527344 L 50.050781 50.527344 L 50.050781 77.828125 L 22.75 77.828125 Z M 22.75 50.527344 " style=" stroke:none;fill-rule:nonzero;fill:rgb(40%,90.588235%,92.54902%);fill-opacity:1;" />
<path d="M 63.699219 50.527344 L 91 50.527344 L 91 77.828125 L 63.699219 77.828125 Z M 63.699219 50.527344 " style=" stroke:none;fill-rule:nonzero;fill:rgb(40%,90.588235%,92.54902%);fill-opacity:1;" />
<path d="M 104.648438 50.527344 L 131.949219 50.527344 L 131.949219 77.828125 L 104.648438 77.828125 Z M 104.648438 50.527344 " style=" stroke:none;fill-rule:nonzero;fill:rgb(40%,90.588235%,92.54902%);fill-opacity:1;" />
<path d="M 145.601562 50.527344 L 172.898438 50.527344 L 172.898438 77.828125 L 145.601562 77.828125 Z M 145.601562 50.527344 " style=" stroke:none;fill-rule:nonzero;fill:rgb(40%,90.588235%,92.54902%);fill-opacity:1;" />
<path d="M 186.550781 50.527344 L 213.851562 50.527344 L 213.851562 77.828125 L 186.550781 77.828125 Z M 186.550781 50.527344 " style=" stroke:none;fill-rule:nonzero;fill:rgb(40%,90.588235%,92.54902%);fill-opacity:1;" />
<path d="M 259.351562 0.476562 L 13.648438 0.476562 C 6.109375 0.476562 0 6.589844 0 14.128906 L 0 96.027344 C 0 103.566406 6.109375 109.679688 13.648438 109.679688 L 28.296875 109.679688 L 31.988281 124.429688 C 32.492188 126.457031 34.3125 127.878906 36.398438 127.878906 L 54.601562 127.878906 C 56.6875 127.878906 58.507812 126.457031 59.015625 124.429688 L 62.703125 109.679688 L 210.296875 109.679688 L 213.988281 124.429688 C 214.492188 126.457031 216.3125 127.878906 218.402344 127.878906 L 236.601562 127.878906 C 238.691406 127.878906 240.511719 126.457031 241.015625 124.429688 L 244.707031 109.679688 L 259.351562 109.679688 C 266.890625 109.679688 273.003906 103.566406 273.003906 96.027344 L 273.003906 14.128906 C 273 6.589844 266.890625 0.476562 259.351562 0.476562 Z M 51.046875 118.777344 L 39.953125 118.777344 L 37.679688 109.679688 L 53.320312 109.679688 Z M 233.046875 118.777344 L 221.953125 118.777344 L 219.679688 109.679688 L 235.320312 109.679688 Z M 263.898438 96.027344 C 263.898438 98.542969 261.863281 100.578125 259.351562 100.578125 L 13.648438 100.578125 C 11.136719 100.578125 9.101562 98.542969 9.101562 96.027344 L 9.101562 14.128906 C 9.101562 11.617188 11.136719 9.578125 13.648438 9.578125 L 259.351562 9.578125 C 261.863281 9.578125 263.898438 11.617188 263.898438 14.128906 Z M 263.898438 96.027344 " style=" stroke:none;fill-rule:nonzero;fill:rgb(13.72549%,12.156863%,12.54902%);fill-opacity:1;" />
<path d="M 236.601562 18.679688 L 254.800781 18.679688 L 254.800781 27.777344 L 236.601562 27.777344 Z M 236.601562 18.679688 " style=" stroke:none;fill-rule:nonzero;fill:rgb(13.72549%,12.156863%,12.54902%);fill-opacity:1;" />
<path d="M 245.699219 32.328125 C 238.160156 32.328125 232.050781 38.441406 232.050781 45.980469 C 232.050781 53.515625 238.160156 59.628906 245.699219 59.628906 C 253.238281 59.628906 259.351562 53.515625 259.351562 45.980469 C 259.351562 38.441406 253.238281 32.328125 245.699219 32.328125 Z M 245.699219 50.527344 C 243.1875 50.527344 241.152344 48.492188 241.152344 45.980469 C 241.152344 43.464844 243.1875 41.429688 245.699219 41.429688 C 248.214844 41.429688 250.25 43.464844 250.25 45.980469 C 250.25 48.492188 248.214844 50.527344 245.699219 50.527344 Z M 245.699219 50.527344 " style=" stroke:none;fill-rule:nonzero;fill:rgb(13.72549%,12.156863%,12.54902%);fill-opacity:1;" />
<path d="M 50.050781 45.980469 L 22.75 45.980469 C 20.238281 45.980469 18.199219 48.015625 18.199219 50.527344 L 18.199219 77.828125 C 18.199219 80.339844 20.238281 82.378906 22.75 82.378906 L 50.050781 82.378906 C 52.5625 82.378906 54.597656 80.339844 54.597656 77.828125 L 54.597656 50.527344 C 54.601562 48.015625 52.5625 45.980469 50.050781 45.980469 Z M 45.5 73.277344 L 27.300781 73.277344 L 27.300781 55.078125 L 45.5 55.078125 Z M 45.5 73.277344 " style=" stroke:none;fill-rule:nonzero;fill:rgb(13.72549%,12.156863%,12.54902%);fill-opacity:1;" />
<path d="M 91 45.980469 L 63.699219 45.980469 C 61.1875 45.980469 59.152344 48.015625 59.152344 50.527344 L 59.152344 77.828125 C 59.152344 80.339844 61.1875 82.378906 63.699219 82.378906 L 91 82.378906 C 93.511719 82.378906 95.550781 80.339844 95.550781 77.828125 L 95.550781 50.527344 C 95.550781 48.015625 93.511719 45.980469 91 45.980469 Z M 86.449219 73.277344 L 68.25 73.277344 L 68.25 55.078125 L 86.449219 55.078125 Z M 86.449219 73.277344 " style=" stroke:none;fill-rule:nonzero;fill:rgb(13.72549%,12.156863%,12.54902%);fill-opacity:1;" />
<path d="M 131.949219 45.980469 L 104.648438 45.980469 C 102.136719 45.980469 100.101562 48.015625 100.101562 50.527344 L 100.101562 77.828125 C 100.101562 80.339844 102.136719 82.378906 104.648438 82.378906 L 131.949219 82.378906 C 134.460938 82.378906 136.5 80.339844 136.5 77.828125 L 136.5 50.527344 C 136.5 48.015625 134.460938 45.980469 131.949219 45.980469 Z M 127.398438 73.277344 L 109.199219 73.277344 L 109.199219 55.078125 L 127.398438 55.078125 Z M 127.398438 73.277344 " style=" stroke:none;fill-rule:nonzero;fill:rgb(13.72549%,12.156863%,12.54902%);fill-opacity:1;" />
<path d="M 172.902344 45.980469 L 145.601562 45.980469 C 143.085938 45.980469 141.050781 48.015625 141.050781 50.527344 L 141.050781 77.828125 C 141.050781 80.339844 143.085938 82.378906 145.601562 82.378906 L 172.902344 82.378906 C 175.414062 82.378906 177.449219 80.339844 177.449219 77.828125 L 177.449219 50.527344 C 177.449219 48.015625 175.414062 45.980469 172.902344 45.980469 Z M 168.351562 73.277344 L 150.148438 73.277344 L 150.148438 55.078125 L 168.351562 55.078125 Z M 168.351562 73.277344 " style=" stroke:none;fill-rule:nonzero;fill:rgb(13.72549%,12.156863%,12.54902%);fill-opacity:1;" />
<path d="M 213.851562 45.980469 L 186.550781 45.980469 C 184.039062 45.980469 182 48.015625 182 50.527344 L 182 77.828125 C 182 80.339844 184.039062 82.378906 186.550781 82.378906 L 213.851562 82.378906 C 216.363281 82.378906 218.398438 80.339844 218.398438 77.828125 L 218.398438 50.527344 C 218.402344 48.015625 216.363281 45.980469 213.851562 45.980469 Z M 209.300781 73.277344 L 191.101562 73.277344 L 191.101562 55.078125 L 209.300781 55.078125 Z M 209.300781 73.277344 " style=" stroke:none;fill-rule:nonzero;fill:rgb(13.72549%,12.156863%,12.54902%);fill-opacity:1;" />
</g>
</svg>