<svg height="512" viewBox="0 0 512 512" width="512" xmlns="http://www.w3.org/2000/svg"><g><g><path d="m24 376h464v96h-464z" fill="#57565c"/><path d="m24 472h48v24h-48z" fill="#2d2d30"/><path d="m440 472h48v24h-48z" fill="#2d2d30"/><g fill="#91cc04"><circle cx="64" cy="424" r="16"/><circle cx="120" cy="424" r="16"/><circle cx="176" cy="424" r="16"/></g><path d="m432 400h32v48h-32z" fill="#cca400"/><path d="m64 344h48v32h-48z" fill="#2d2d30"/><path d="m392 344h48v32h-48z" fill="#2d2d30"/><path d="m88 16a16 16 0 0 1 16 16v312a0 0 0 0 1 0 0h-32a0 0 0 0 1 0 0v-312a16 16 0 0 1 16-16z" fill="#d8d7da"/><path d="m416 16a16 16 0 0 1 16 16v312a0 0 0 0 1 0 0h-32a0 0 0 0 1 0 0v-312a16 16 0 0 1 16-16z" fill="#d8d7da"/></g><g><path d="m488 368h-40v-24a8 8 0 0 0 -8-8v-304a24 24 0 0 0 -48 0v304a8 8 0 0 0 -8 8v24h-264v-24a8 8 0 0 0 -8-8v-304a24 24 0 0 0 -48 0v304a8 8 0 0 0 -8 8v24h-32a8 8 0 0 0 -8 8v120a8 8 0 0 0 8 8h48a8 8 0 0 0 8-8v-16h352v16a8 8 0 0 0 8 8h48a8 8 0 0 0 8-8v-120a8 8 0 0 0 -8-8zm-80-336a8 8 0 0 1 16 0v304h-16zm-8 320h32v16h-32zm-320-320a8 8 0 0 1 16 0v304h-16zm-8 320h32v16h-32zm-8 136h-32v-8h32zm416 0h-32v-8h32zm0-24h-448v-80h448z"/><path d="m88 424a24 24 0 1 0 -24 24 24.028 24.028 0 0 0 24-24zm-24 8a8 8 0 1 1 8-8 8.009 8.009 0 0 1 -8 8z"/><path d="m120 448a24 24 0 1 0 -24-24 24.028 24.028 0 0 0 24 24zm0-32a8 8 0 1 1 -8 8 8.009 8.009 0 0 1 8-8z"/><path d="m176 448a24 24 0 1 0 -24-24 24.028 24.028 0 0 0 24 24zm0-32a8 8 0 1 1 -8 8 8.009 8.009 0 0 1 8-8z"/><path d="m432 456h32a8 8 0 0 0 8-8v-48a8 8 0 0 0 -8-8h-32a8 8 0 0 0 -8 8v48a8 8 0 0 0 8 8zm8-16v-8h16v8zm16-32v8h-16v-8z"/><path d="m216 432h104a8 8 0 0 0 0-16h-104a8 8 0 0 0 0 16z"/><path d="m352 432h8a8 8 0 0 0 0-16h-8a8 8 0 0 0 0 16z"/></g></g></svg>