<svg height="512" viewBox="0 0 512 512" width="512" xmlns="http://www.w3.org/2000/svg"><g><g><rect fill="#57565c" height="128" rx="20" width="480" x="16" y="336"/><g fill="#ffda44"><path d="m48 376h48v48h-48z"/><path d="m120 376h48v48h-48z"/><path d="m192 376h48v48h-48z"/></g><path d="m48 312h64v24h-64z" fill="#2d2d30"/><path d="m400 312h64v24h-64z" fill="#2d2d30"/><path d="m80 40a16 16 0 0 1 16 16v256a0 0 0 0 1 0 0h-32a0 0 0 0 1 0 0v-256a16 16 0 0 1 16-16z" fill="#e0e0e2"/><path d="m432 40a16 16 0 0 1 16 16v256a0 0 0 0 1 0 0h-32a0 0 0 0 1 0 0v-256a16 16 0 0 1 16-16z" fill="#e0e0e2"/><g fill="#ffda44"><circle cx="256" cy="272" r="8"/><path d="m240 254.111a24 24 0 0 1 32 0z"/><path d="m224 236.222a48 48 0 0 1 64 0z"/></g><circle cx="256" cy="248" fill="#91cc04" r="56"/></g><g><path d="m476 328h-4v-16a8 8 0 0 0 -8-8h-8v-248a24 24 0 0 0 -48 0v248h-8a8 8 0 0 0 -8 8v16h-272v-16a8 8 0 0 0 -8-8h-8v-248a24 24 0 0 0 -48 0v248h-8a8 8 0 0 0 -8 8v16h-4a28.031 28.031 0 0 0 -28 28v88a28.031 28.031 0 0 0 28 28h440a28.031 28.031 0 0 0 28-28v-88a28.031 28.031 0 0 0 -28-28zm-52-272a8 8 0 0 1 16 0v248h-16zm-16 264h48v8h-48zm-336-264a8 8 0 0 1 16 0v248h-16zm-16 264h48v8h-48zm432 124a12.01 12.01 0 0 1 -12 12h-440a12.01 12.01 0 0 1 -12-12v-88a12.01 12.01 0 0 1 12-12h440a12.01 12.01 0 0 1 12 12z"/><path d="m96 368h-48a8 8 0 0 0 -8 8v48a8 8 0 0 0 8 8h48a8 8 0 0 0 8-8v-48a8 8 0 0 0 -8-8zm-8 48h-32v-32h32z"/><path d="m168 368h-48a8 8 0 0 0 -8 8v48a8 8 0 0 0 8 8h48a8 8 0 0 0 8-8v-48a8 8 0 0 0 -8-8zm-8 48h-32v-32h32z"/><path d="m240 368h-48a8 8 0 0 0 -8 8v48a8 8 0 0 0 8 8h48a8 8 0 0 0 8-8v-48a8 8 0 0 0 -8-8zm-8 48h-32v-32h32z"/><path d="m440 400a8 8 0 0 0 -8-8h-64a8 8 0 0 0 0 16h64a8 8 0 0 0 8-8z"/><path d="m464 392h-8a8 8 0 0 0 0 16h8a8 8 0 0 0 0-16z"/><path d="m464 368h-128a8 8 0 0 0 0 16h128a8 8 0 0 0 0-16z"/><path d="m464 416h-48a8 8 0 0 0 0 16h48a8 8 0 0 0 0-16z"/><circle cx="256" cy="272" r="8"/><path d="m277.336 248.15a32 32 0 0 0 -42.672 0 8 8 0 0 0 10.671 11.922 16 16 0 0 1 21.33 0 8 8 0 0 0 10.671-11.922z"/><path d="m229.335 242.184a40 40 0 0 1 53.33 0 8 8 0 1 0 10.67-11.922 56 56 0 0 0 -74.67 0 8 8 0 0 0 10.67 11.922z"/><path d="m256 312a64 64 0 1 0 -64-64 64.072 64.072 0 0 0 64 64zm0-112a48 48 0 1 1 -48 48 48.054 48.054 0 0 1 48-48z"/></g></g></svg>